{"title":"Disco Singh 2014 Punjabi Movie Nonretail DVD RIP GOPI SAHI","uid":10061607,"size":718896690,"categoryP":"video","categoryS":"movies","magnet":"?xt=urn:btih:80b95277bda0f608f22d8e3df54a5bd149720b6b&amp;dn=Disco+Singh+2014+Punjabi+Movie+Nonretail+DVD+RIP+GOPI+SAHI&amp;tr=udp%3A%2F%2Ftracker.openbittorrent.com%3A80&amp;tr=udp%3A%2F%2Fopen.demonii.com%3A1337&amp;tr=udp%3A%2F%2Ftracker.coppersurfer.tk%3A6969&amp;tr=udp%3A%2F%2Fexodus.desync.com%3A6969","seeders":3,"leechers":0,"uploader":"jatt13","files":1,"time":1398739687,"description":"Video\nID                             : 1\nFormat                         : MPEG-4 Visual\nFormat profile                 : Advanced Simple@L5\nFormat settings, BVOP          : Yes\nFormat settings, QPel          : No\nFormat settings, GMC           : No warppoints\nFormat settings, Matrix        : Default (MPEG)\nCodec ID                       : V_MS/VFW/FOURCC / XVID\nCodec ID/Hint                  : XviD\nDuration                       : 2h 21mn\nBit rate                       : 586 Kbps\nWidth                          : 640 pixels\nHeight                         : 272 pixels\nDisplay aspect ratio           : 2.35:1\nFrame rate mode                : Constant\nFrame rate                     : 29.970 fps\nColor space                    : YUV\nChroma subsampling             : 4:2:0\nBit depth                      : 8 bits\nScan type                      : Progressive\nCompression mode               : Lossy\nBits/(Pixel*Frame)             : 0.112\nStream size                    : 591 MiB (86%)\nTitle                          : GOPI SAHI\nWriting library                : XviD 1.2.1 (UTC 2008-12-04)\nLanguage                       : Panjabi\nDefault                        : Yes\nForced                         : No\n\nAudio\nID                             : 2\nFormat                         : MPEG Audio\nFormat version                 : Version 1\nFormat profile                 : Layer 3\nMode                           : Joint stereo\nMode extension                 : MS Stereo\nCodec ID                       : A_MPEG/L3\nCodec ID/Hint                  : MP3\nDuration                       : 2h 21mn\nBit rate mode                  : Constant\nBit rate                       : 80.0 Kbps\nChannel count                  : 2 channels\nSampling rate                  : 32.0 KHz\nCompression mode               : Lossy\nStream size                    : 80.7 MiB (12%)\nTitle                          : GOPI SAHI\nWriting library                : LAME3.99r\nEncoding settings              : -m j -V 4 -q 2 -lowpass 13.5 -b 80\nLanguage                       : Panjabi\nDefault                        : Yes\nForced                         : No\n[IMG]http://i.imgur.com/DCefYtO.jpg[/IMG]\n[IMG]http://i.imgur.com/uq2VPkY.jpg[/IMG]\n[IMG]http://i.imgur.com/qpbGnDV.jpg[/IMG]\n[IMG]http://i.imgur.com/OuK6vsL.jpg[/IMG]\n[IMG]http://i.imgur.com/VQRNJJV.jpg[/IMG]\n[IMG]http://i.imgur.com/nx5gqOi.jpg[/IMG]\n[IMG]http://i.imgur.com/e6gQ2nn.jpg[/IMG]","torrent":{"xt":"urn:btih:80b95277bda0f608f22d8e3df54a5bd149720b6b","amp;dn":"Disco+Singh+2014+Punjabi+Movie+Nonretail+DVD+RIP+GOPI+SAHI","amp;tr":["udp%3A%2F%2Ftracker.openbittorrent.com%3A80","udp%3A%2F%2Fopen.demonii.com%3A1337","udp%3A%2F%2Ftracker.coppersurfer.tk%3A6969","udp%3A%2F%2Fexodus.desync.com%3A6969"],"infoHash":"80b95277bda0f608f22d8e3df54a5bd149720b6b","infoHashBuffer":{"type":"Buffer","data":[128,185,82,119,189,160,246,8,242,45,142,61,245,74,91,209,73,114,11,107]},"announce":[],"urlList":[]}}